M48
; DRILL file KiCad 10.0.3 date 2026-05-18T11:45:06
; FORMAT={-:-/ absolute / metric / decimal}
; #@! TF.CreationDate,2026-05-18T11:45:06+05:30
; #@! TF.GenerationSoftware,Kicad,Pcbnew,10.0.3
; #@! TF.FileFunction,Plated,1,2,PTH
FMAT,2
METRIC
; #@! TA.AperFunction,Plated,PTH,ComponentDrill
T1C0.800
; #@! TA.AperFunction,Plated,PTH,ComponentDrill
T2C0.889
; #@! TA.AperFunction,Plated,PTH,ComponentDrill
T3C0.899
; #@! TA.AperFunction,Plated,PTH,ComponentDrill
T4C0.900
; #@! TA.AperFunction,Plated,PTH,ComponentDrill
T5C1.000
; #@! TA.AperFunction,Plated,PTH,ComponentDrill
T6C1.100
; #@! TA.AperFunction,Plated,PTH,ComponentDrill
T7C1.300
; #@! TA.AperFunction,Plated,PTH,ComponentDrill
T8C1.397
%
G90
G05
T1
X141.34Y-82.5
X151.5Y-82.5
T2
X86.22Y-69.792
X86.22Y-72.332
X86.22Y-74.873
X93.84Y-82.492
X96.38Y-82.492
X98.92Y-82.492
X167.052Y-105.743
X169.592Y-105.743
X172.132Y-105.743
X179.752Y-93.043
X179.752Y-95.583
X179.752Y-98.123
T3
X93.205Y-59.633
X93.205Y-64.712
X99.555Y-59.633
X99.555Y-64.712
X156.892Y-92.408
X156.892Y-98.758
X161.972Y-92.408
X161.972Y-98.758
T4
X144.96Y-89.0
X147.5Y-89.0
T5
X107.5Y-49.0
X112.0Y-49.0
X118.0Y-49.0
X122.5Y-49.0
X139.5Y-47.8
X139.5Y-50.34
X139.5Y-52.88
X139.5Y-55.42
X139.5Y-57.96
X139.5Y-60.5
X139.5Y-63.04
X139.5Y-65.58
X139.5Y-68.12
X139.5Y-70.66
X139.5Y-73.2
X139.5Y-75.74
X156.0Y-47.84
X156.0Y-50.38
X156.0Y-52.92
X156.0Y-55.46
X156.0Y-58.0
X156.0Y-60.54
X156.0Y-63.08
X156.0Y-65.62
X156.0Y-68.16
X156.0Y-70.7
X156.0Y-73.24
X156.0Y-75.78
X172.5Y-49.0
X177.0Y-49.0
X183.0Y-49.0
X187.5Y-49.0
T6
X107.0Y-90.0
X107.0Y-95.0
X112.0Y-90.0
X112.0Y-95.0
X118.0Y-79.5
X118.0Y-84.5
X118.5Y-101.0
X118.5Y-106.0
X123.0Y-79.5
X123.0Y-84.5
X123.5Y-101.0
X123.5Y-106.0
X126.5Y-61.0
X126.5Y-66.0
X129.435Y-89.859
X129.435Y-94.859
X131.5Y-61.0
X131.5Y-66.0
X134.435Y-89.859
X134.435Y-94.859
X163.966Y-61.198
X163.966Y-66.198
X168.966Y-61.198
X168.966Y-66.198
X184.5Y-77.5
X184.5Y-82.5
X189.5Y-77.5
X189.5Y-82.5
X194.0Y-65.0
X194.0Y-70.0
X194.0Y-89.5
X194.0Y-94.5
X199.0Y-65.0
X199.0Y-70.0
X199.0Y-89.5
X199.0Y-94.5
X203.5Y-77.5
X203.5Y-82.5
X208.5Y-77.5
X208.5Y-82.5
T7
X106.25Y-51.5
X113.25Y-51.5
X116.75Y-51.5
X123.75Y-51.5
X171.25Y-51.5
X178.25Y-51.5
X181.75Y-51.5
X188.75Y-51.5
T8
X88.76Y-65.665
X88.76Y-79.0
X104.0Y-65.665
X104.0Y-79.0
X162.925Y-87.963
X162.925Y-103.203
X176.26Y-87.963
X176.26Y-103.203
M30
